<?xml version="1.0" encoding="UTF-8"?>
<svg id="Layer_1" xmlns="http://www.w3.org/2000/svg" version="1.1" viewBox="0 0 500 500">
  <!-- Generator: Adobe Illustrator 29.5.0, SVG Export Plug-In . SVG Version: 2.1.0 Build 137)  -->
  <defs>
    <style>
      .st0 {
        fill: #7480ff;
      }
    </style>
  </defs>
  <path class="st0" d="M346.53,59.37c5.31,0,9.62,4.32,9.62,9.62v325.6c0,5.31-4.32,9.62-9.62,9.62h-203.69c-5.31,0-9.62-4.32-9.62-9.62V68.99c0-5.31,4.32-9.62,9.62-9.62h203.69M346.53,51.37h-203.69c-9.73,0-17.62,7.9-17.62,17.62v325.6c0,9.73,7.9,17.62,17.62,17.62h203.69c9.73,0,17.62-7.9,17.62-17.62V68.99c0-9.73-7.9-17.62-17.62-17.62h0Z"/>
  <path class="st0" d="M375.86,86.97c5.31,0,9.62,4.32,9.62,9.62v334.41c0,5.31-4.32,9.62-9.62,9.62h-212.51c-5.31,0-9.62-4.32-9.62-9.62v-16.22h184.87c14.13,0,25.62-11.49,25.62-25.62V86.97h11.64M375.86,78.97h-19.64v310.2c0,9.73-7.9,17.62-17.62,17.62h-192.87v24.22c0,9.73,7.9,17.62,17.62,17.62h212.51c9.73,0,17.62-7.9,17.62-17.62V96.59c0-9.73-7.9-17.62-17.62-17.62h0Z"/>
  <path class="st0" d="M175.29,263.35c0,8.7-7.05,15.75-15.75,15.75-6.18,0-11.53-3.56-14.12-8.75h-31.9c-3.88,0-7.01-3.13-7.01-6.99,0-1.95.79-3.69,2.05-4.96,1.27-1.26,3.02-2.05,4.96-2.05h31.9c2.59-5.19,7.94-8.75,14.12-8.75,8.7,0,15.75,7.05,15.75,15.76Z"/>
  <path class="st0" d="M175.29,115.44c0,8.7-7.05,15.75-15.75,15.75-6.18,0-11.53-3.56-14.12-8.75h-31.9c-3.88,0-7.01-3.13-7.01-6.99,0-1.93.79-3.69,2.05-4.96,1.27-1.26,3.02-2.05,4.96-2.05h31.91c2.57-5.18,7.92-8.74,14.1-8.74,8.7,0,15.75,7.05,15.75,15.75Z"/>
  <path class="st0" d="M175.29,189.39c0,8.7-7.05,15.75-15.75,15.75-6.18,0-11.53-3.56-14.1-8.74h-31.91c-3.88,0-7.01-3.13-7.01-7.01,0-1.93.79-3.68,2.05-4.95,1.27-1.27,3.02-2.06,4.96-2.06h31.91c2.57-5.18,7.92-8.74,14.1-8.74,8.7,0,15.75,7.05,15.75,15.75Z"/>
  <path class="st0" d="M175.29,337.3c0,8.7-7.05,15.75-15.75,15.75-6.18,0-11.53-3.56-14.1-8.74h-31.91c-3.88,0-7.01-3.13-7.01-7.01,0-1.93.79-3.69,2.05-4.95,1.27-1.27,3.02-2.06,4.96-2.06h31.91c2.57-5.18,7.92-8.74,14.1-8.74,8.7,0,15.75,7.05,15.75,15.75Z"/>
</svg>